<svg id="Phone" xmlns="http://www.w3.org/2000/svg" xmlns:xlink="http://www.w3.org/1999/xlink" viewBox="0 0 452 920"><style>.st0{fill:url(#SVGID_1_)}.st1{fill:url(#SVGID_2_)}.st2{fill:url(#SVGID_3_)}.st3{fill:url(#SVGID_4_)}.st4{fill:url(#SVGID_5_)}.st5{fill:url(#SVGID_6_)}.st6{fill:url(#SVGID_7_);stroke:#4d4d4d}.st7{fill:url(#SVGID_8_)}.st8{fill:url(#SVGID_9_)}.st9{opacity:.86;fill:url(#SVGID_10_);enable-background:new}.st10{fill:#fff}.st11{fill:url(#SVGID_11_)}.st12{fill:url(#SVGID_12_)}.st13{display:none}.st14{display:inline;fill:url(#SVGID_13_)}.st15{fill:url(#SVGID_14_)}.st16{opacity:.86;fill:url(#SVGID_15_);enable-background:new}.st17{fill:url(#SVGID_16_)}.st18,.st19{opacity:.86;fill:url(#SVGID_17_);enable-background:new}.st19{fill:url(#SVGID_18_)}.st20{clip-path:url(#SVGID_21_)}.st21{fill:none}</style><g id="Background"><radialGradient id="SVGID_1_" cx="227.322" cy="-4195.938" r="240.173" gradientTransform="matrix(1.03 0 0 2.125 -8.142 9376.367)" gradientUnits="userSpaceOnUse"><stop offset="0" stop-color="#ccc"/><stop offset=".431" stop-color="#cacaca"/><stop offset=".612" stop-color="#c3c3c3"/><stop offset=".747" stop-color="#b6b6b6"/><stop offset=".858" stop-color="#a5a5a5"/><stop offset=".954" stop-color="#8e8e8e"/><stop offset="1" stop-color="gray"/></radialGradient><path class="st0" d="M-.1 50c0-27.5 22.5-50 50-50h352.2c27.5 0 50 22.5 50 50v820c0 27.5-22.5 50-50 50H49.9c-27.5 0-50-22.5-50-50V50z"/><radialGradient id="SVGID_2_" cx="227.428" cy="-4100.795" r="235.497" gradientTransform="matrix(1.0329 0 0 2.0736 -8.26 8962.51)" gradientUnits="userSpaceOnUse"><stop offset=".545" stop-color="#7a7a7a"/><stop offset=".631" stop-color="#888"/><stop offset=".794" stop-color="#aeaeae"/><stop offset="1" stop-color="#e6e6e6"/></radialGradient><path class="st1" d="M53.2 916.2c-27.5 0-50-22.5-50-50V52c0-27.5 22.5-50 50-50h346.9c27.5 0 50 22.5 50 50v814.3c0 27.5-22.5 50-50 50H53.2z"/><radialGradient id="SVGID_3_" cx="227.38" cy="-4100.82" r="243.324" gradientTransform="matrix(1.0329 0 0 2.0736 -8.26 8962.51)" gradientUnits="userSpaceOnUse"><stop offset="0" stop-color="#666"/><stop offset=".266" stop-color="#696969"/><stop offset=".48" stop-color="#737373"/><stop offset=".677" stop-color="#848484"/><stop offset=".862" stop-color="#9c9c9c"/><stop offset="1" stop-color="#b3b3b3"/></radialGradient><path class="st2" d="M54.6 914.8c-27.5 0-50-22.5-50-50V53.4c0-27.5 22.5-50 50-50h344c27.5 0 50 22.5 50 50v811.3c0 27.5-22.5 50-50 50l-344 .1z"/><radialGradient id="SVGID_4_" cx="227.428" cy="-3765.663" r="262.593" gradientTransform="matrix(1.0329 0 0 1.8981 -8.26 7606.655)" gradientUnits="userSpaceOnUse"><stop offset="0"/><stop offset=".183" stop-color="#040404"/><stop offset=".383" stop-color="#121212"/><stop offset=".59" stop-color="#272727"/><stop offset=".802" stop-color="#464646"/><stop offset="1" stop-color="#696969"/></radialGradient><path class="st3" d="M56.4 912.5c-27.5 0-50-22.5-50-50v-807c0-27.5 22.5-50 50-50h340.5c27.5 0 50 22.5 50 50v807c0 27.5-22.5 50-50 50H56.4z"/><path d="M59.4 910.8c-27.5 0-50-22.5-50-50V57.4c0-27.5 22.5-50 50-50h334.4c27.5 0 50 22.5 50 50v803.4c0 27.5-22.5 50-50 50H59.4z"/><linearGradient id="SVGID_5_" gradientUnits="userSpaceOnUse" x1="259.741" y1="-237.026" x2="588.781" y2="-515.775" gradientTransform="translate(0 668)"><stop offset=".053"/><stop offset=".221" stop-color="#201b18"/><stop offset=".448" stop-color="#443a33"/><stop offset=".66" stop-color="#5e5147"/><stop offset=".85" stop-color="#6d5e53"/><stop offset="1" stop-color="#736357"/></linearGradient><path class="st4" d="M62.4 909.5c-28.4 0-51.6-22.5-51.6-50V58.7c0-27.5 23.2-50 51.6-50h328.4c28.4 0 51.6 22.5 51.6 50v800.8c0 27.5-23.2 50-51.6 50H62.4z"/></g><g id="Top_x5F_Controls"><linearGradient id="SVGID_6_" gradientUnits="userSpaceOnUse" x1="60.85" y1="-617.513" x2="63.563" y2="-630.277" gradientTransform="translate(0 668)"><stop offset="0" stop-color="#0f0"/><stop offset=".265" stop-color="#00cf11"/><stop offset=".607" stop-color="#009826"/><stop offset=".863" stop-color="#007532"/><stop offset="1" stop-color="#006837"/></linearGradient><path class="st5" d="M62.2 50.7c-3.7 0-6.7-2.9-6.7-6.5s3-6.5 6.7-6.5 6.7 2.9 6.7 6.5c0 3.5-3 6.5-6.7 6.5zm0-12.1c-3.2 0-5.8 2.5-5.8 5.6s2.6 5.6 5.8 5.6 5.8-2.5 5.8-5.6-2.6-5.6-5.8-5.6z"/><linearGradient id="SVGID_7_" gradientUnits="userSpaceOnUse" x1="56.187" y1="-623.375" x2="74.16" y2="-624.795" gradientTransform="translate(0 668)"><stop offset="0"/><stop offset=".068" stop-color="#1d1d1d"/><stop offset=".202" stop-color="#525252"/><stop offset=".267" stop-color="#666"/><stop offset=".43" stop-color="#666"/><stop offset=".712" stop-color="#1a1a1a"/><stop offset="1" stop-color="#4d4d4d"/></linearGradient><ellipse class="st6" cx="62.2" cy="44.2" rx="5.8" ry="5.6"/><linearGradient id="SVGID_8_" gradientUnits="userSpaceOnUse" x1="58.122" y1="-626.301" x2="66.508" y2="-621.261" gradientTransform="translate(0 668)"><stop offset="0" stop-color="#1a1a1a"/><stop offset=".461" stop-color="#505050"/><stop offset=".811" stop-color="#737373"/><stop offset="1" stop-color="gray"/></linearGradient><ellipse class="st7" cx="62.2" cy="44.2" rx="4.6" ry="4.4"/><linearGradient id="SVGID_9_" gradientUnits="userSpaceOnUse" x1="61.446" y1="-620.304" x2="62.972" y2="-627.483" gradientTransform="translate(0 668)"><stop offset="0" stop-color="#0f0"/><stop offset=".265" stop-color="#00cf11"/><stop offset=".607" stop-color="#009826"/><stop offset=".863" stop-color="#007532"/><stop offset="1" stop-color="#006837"/></linearGradient><ellipse class="st8" cx="62.2" cy="44.2" rx="3.8" ry="3.7"/><radialGradient id="SVGID_10_" cx="68.619" cy="-372.28" r="1.206" gradientTransform="matrix(1.0329 0 0 1.528 -8.021 614.394)" gradientUnits="userSpaceOnUse"><stop offset=".182" stop-color="#0f0"/><stop offset=".541" stop-color="#00bf17"/><stop offset="1" stop-color="#006837"/></radialGradient><ellipse class="st9" cx="62.9" cy="45.6" rx="1.5" ry="1.4"/><path class="st10" d="M67.4 42.8c-.2 1.1-2.5 1.5-5 1S58 42 58.3 40.9c.2-1.1 2.5-1.5 5-1s4.4 1.8 4.1 2.9z"/><linearGradient id="SVGID_11_" gradientUnits="userSpaceOnUse" x1="103.661" y1="-611.404" x2="373.125" y2="-638.684" gradientTransform="translate(0 668)"><stop offset="0" stop-color="#858585"/><stop offset=".002" stop-color="#858585"/><stop offset=".148" stop-color="#6c6c6c"/><stop offset=".281" stop-color="#5c5c5c"/><stop offset=".388" stop-color="#575757"/><stop offset=".515" stop-color="#707070"/><stop offset=".57" stop-color="#6d6d6d"/><stop offset=".764" stop-color="#666"/><stop offset=".93" stop-color="#555"/><stop offset=".993" stop-color="#4d4d4d"/></linearGradient><path class="st11" d="M351.7 44.2c0 4.7-4.5 8.6-10 8.6H111.5c-5.5 0-10-3.9-10-8.6s4.5-8.6 10-8.6h230.1c5.6 0 10.1 3.8 10.1 8.6z"/><linearGradient id="SVGID_12_" gradientUnits="userSpaceOnUse" x1="226.6" y1="-624.482" x2="226.6" y2="-626.145" gradientTransform="translate(0 668)"><stop offset="0"/><stop offset=".539" stop-color="#a88f7e"/><stop offset=".932" stop-color="#736357"/></linearGradient><path class="st12" d="M345.6 43.2c0 .8-.9 1.4-2 1.4h-234c-1.1 0-2-.6-2-1.4 0-.8.9-1.4 2-1.4h234c1.1 0 2 .6 2 1.4z"/><g class="st13"><linearGradient id="SVGID_13_" gradientUnits="userSpaceOnUse" x1="-73.598" y1="-537.317" x2="-72.065" y2="-544.527" gradientTransform="rotate(12.328 -2713.468 377.649)"><stop offset="0" stop-color="#22b573"/><stop offset=".325" stop-color="#15975c"/><stop offset=".763" stop-color="#067541"/><stop offset="1" stop-color="#006837"/></linearGradient><path class="st14" d="M61.6 47.7c-2-.4-3.3-2.4-2.9-4.4.4-2 2.5-3.2 4.5-2.8 2 .4 3.3 2.4 2.9 4.4-.4 2-2.4 3.2-4.5 2.8z"/></g></g><g id="Bottom_x5F_Controls"><linearGradient id="SVGID_14_" gradientUnits="userSpaceOnUse" x1="225.599" y1="218.989" x2="229.015" y2="202.915" gradientTransform="translate(0 668)"><stop offset="0" stop-color="#0f0"/><stop offset=".265" stop-color="#00cf11"/><stop offset=".607" stop-color="#009826"/><stop offset=".863" stop-color="#007532"/><stop offset="1" stop-color="#006837"/></linearGradient><path class="st15" d="M227.3 887.4c-.6 0-1.1-.6-1.1-1.2v-14.3c0-.7.5-1.2 1.1-1.2s1.1.6 1.1 1.2v14.3c0 .6-.5 1.2-1.1 1.2z"/><radialGradient id="SVGID_15_" cx="331.493" cy="218.916" r="10.959" gradientTransform="translate(0 668)" gradientUnits="userSpaceOnUse"><stop offset=".182" stop-color="#0f0"/><stop offset=".541" stop-color="#00bf17"/><stop offset="1" stop-color="#006837"/></radialGradient><path class="st16" d="M317.8 894.2v-14.6h27.3v14.6h-27.3zm2.2-2.2h23v-10.2h-23V892z"/><linearGradient id="SVGID_16_" gradientUnits="userSpaceOnUse" x1="334.862" y1="219.083" x2="338.031" y2="204.173" gradientTransform="translate(0 668)"><stop offset="0" stop-color="#0f0"/><stop offset=".265" stop-color="#00cf11"/><stop offset=".607" stop-color="#009826"/><stop offset=".863" stop-color="#007532"/><stop offset="1" stop-color="#006837"/></linearGradient><path class="st17" d="M347.6 889.8v-12.9H322v-2.2h27.8v15.1z"/><radialGradient id="SVGID_17_" cx="119.247" cy="216.1" r="14.312" gradientTransform="translate(0 668)" gradientUnits="userSpaceOnUse"><stop offset=".182" stop-color="#0f0"/><stop offset=".541" stop-color="#00bf17"/><stop offset="1" stop-color="#006837"/></radialGradient><path class="st18" d="M129.3 892.2c2.9-.3 5.2-2.8 5.2-5.8 0-3.2-2.6-5.8-5.8-5.8H113v4.5l-11.3-5.6 11.3-5.6v4.5h15.7c4.4 0 8 3.6 8 8 0 4.2-3.3 7.7-7.4 8v-2.2z"/><radialGradient id="SVGID_18_" cx="227.3" cy="219.013" r="12.012" gradientTransform="translate(0 668)" gradientUnits="userSpaceOnUse"><stop offset=".182" stop-color="#0f0"/><stop offset=".541" stop-color="#00bf17"/><stop offset="1" stop-color="#006837"/></radialGradient><path class="st19" d="M227.3 898.7c-6.8 0-12.4-5.5-12.4-12.4 0-4.7 2.6-8.9 6.8-11l1 2c-3.4 1.7-5.6 5.2-5.6 9.1 0 5.6 4.6 10.2 10.2 10.2s10.2-4.6 10.2-10.2c0-3.8-2.2-7.3-5.6-9.1l1-2c4.1 2.1 6.8 6.4 6.8 11-.1 6.9-5.6 12.4-12.4 12.4z"/><defs><path id="SVGID_19_" d="M.9 1h1l-1 1z"/></defs><defs><path id="SVGID_20_" d="M-1.1-1h-1l1-1z"/></defs><clipPath id="SVGID_21_"><use xlink:href="#SVGID_19_" overflow="visible"/></clipPath><clipPath id="SVGID_22_" class="st20"><use xlink:href="#SVGID_20_" overflow="visible"/></clipPath></g><path class="st21" d="M12 85h430v778H12z" id="video"/></svg>